<?xml version="1.0" encoding="UTF-8" standalone="no"?>
<svg
   xmlns:dc="http://purl.org/dc/elements/1.1/"
   xmlns:cc="http://creativecommons.org/ns#"
   xmlns:rdf="http://www.w3.org/1999/02/22-rdf-syntax-ns#"
   xmlns:svg="http://www.w3.org/2000/svg"
   xmlns="http://www.w3.org/2000/svg"
   xmlns:xlink="http://www.w3.org/1999/xlink"
   xmlns:sodipodi="http://sodipodi.sourceforge.net/DTD/sodipodi-0.dtd"
   xmlns:inkscape="http://www.inkscape.org/namespaces/inkscape"
   version="1.1"
   preserveAspectRatio="xMidYMid meet"
   viewBox="0 0 640 640"
   width="640"
   height="640"
   id="svg87"
   sodipodi:docname="roa-choice-of-x-same.svg"
   inkscape:version="1.0.1 (c497b03c, 2020-09-10)">
  <metadata
     id="metadata91">
    <rdf:RDF>
      <cc:Work
         rdf:about="">
        <dc:format>image/svg+xml</dc:format>
        <dc:type
           rdf:resource="http://purl.org/dc/dcmitype/StillImage" />
        <dc:title />
      </cc:Work>
    </rdf:RDF>
  </metadata>
  <sodipodi:namedview
     pagecolor="#ffffff"
     bordercolor="#666666"
     borderopacity="1"
     objecttolerance="10"
     gridtolerance="10"
     guidetolerance="10"
     inkscape:pageopacity="0"
     inkscape:pageshadow="2"
     inkscape:window-width="1440"
     inkscape:window-height="878"
     id="namedview89"
     showgrid="false"
     inkscape:zoom="1.0523659"
     inkscape:cx="137.07819"
     inkscape:cy="320.0001"
     inkscape:window-x="0"
     inkscape:window-y="0"
     inkscape:window-maximized="1"
     inkscape:current-layer="g83"
     inkscape:document-rotation="0" />
  <defs
     id="defs23">
    <path
       d="M368.89 219.8C368.89 333.66 344.24 426.11 313.87 426.11C283.51 426.11 258.86 333.66 258.86 219.8C258.86 105.93 283.51 13.49 313.87 13.49C344.24 13.49 368.89 105.93 368.89 219.8Z"
       id="a1vNCi5NYM" />
    <path
       d="M217.48 534.67C129.44 606.87 42.33 646.44 23.07 622.96C3.82 599.48 59.66 521.8 147.7 449.59C235.74 377.38 322.85 337.82 342.11 361.29C361.37 384.77 305.52 462.46 217.48 534.67Z"
       id="a2pXYGAmS0" />
    <path
       d="M486.75 447.06C576.55 517.07 634.3 593.35 615.63 617.3C596.96 641.24 508.9 603.85 419.1 533.84C329.3 463.83 271.55 387.55 290.22 363.6C308.89 339.65 396.95 377.05 486.75 447.06Z"
       id="bMySyK3VJ" />
    <path
       d="M187.02 485.55L196.94 487.06L189.76 494.41L191.46 504.8L182.59 499.89L173.72 504.8L175.42 494.41L168.24 487.06L178.16 485.55L182.59 476.1L187.02 485.55Z"
       id="g6HEetej7P" />
    <path
       d="M457.36 485.55L467.27 487.06L460.1 494.41L461.79 504.8L452.92 499.89L444.06 504.8L445.75 494.41L438.58 487.06L448.49 485.55L452.92 476.1L457.36 485.55Z"
       id="d28UtX3IKc" />
    <path
       d="M318.31 200.55L328.22 202.06L321.05 209.42L322.74 219.8L313.87 214.9L305.01 219.8L306.7 209.42L299.53 202.06L309.44 200.55L313.87 191.1L318.31 200.55Z"
       id="bD5sKDGEn" />
    <path
       d="M343.54 386.16C343.54 401.27 331.79 413.53 317.32 413.53C302.85 413.53 291.1 401.27 291.1 386.16C291.1 371.06 302.85 358.8 317.32 358.8C331.79 358.8 343.54 371.06 343.54 386.16Z"
       id="f2swB1TMPV" />
    <path
       d="M375.51 480.35C375.51 583.57 291.71 667.38 188.48 667.38C85.26 667.38 1.46 583.57 1.46 480.35C1.46 377.13 85.26 293.32 188.48 293.32C291.71 293.32 375.51 377.13 375.51 480.35Z"
       id="b2PON52hCY" />
    <path
       d="M627.91 487.45C627.91 590.67 544.11 674.48 440.88 674.48C337.66 674.48 253.86 590.67 253.86 487.45C253.86 384.23 337.66 300.42 440.88 300.42C544.11 300.42 627.91 384.23 627.91 487.45Z"
       id="b1jQ3tvgFN" />
    <path
       d="M504.35 226.5C504.35 329.72 420.54 413.53 317.32 413.53C214.1 413.53 130.29 329.72 130.29 226.5C130.29 123.28 214.1 39.47 317.32 39.47C420.54 39.47 504.35 123.28 504.35 226.5Z"
       id="e1TCzdDJE0" />
    <path
       d="M321.73 408.08C321.73 410.84 319.49 413.08 316.73 413.08C313.98 413.08 311.73 410.84 311.73 408.08C311.73 405.32 313.98 403.08 316.73 403.08C319.49 403.08 321.73 405.32 321.73 408.08Z"
       id="akIpPFLTa" />
    <path
       d="M307.06 371.67C307.06 374.43 304.82 376.67 302.06 376.67C299.3 376.67 297.06 374.43 297.06 371.67C297.06 368.91 299.3 366.67 302.06 366.67C304.82 366.67 307.06 368.91 307.06 371.67Z"
       id="i13pxMT7RS" />
    <path
       d="M339.04 371.67C339.04 374.43 336.8 376.67 334.04 376.67C331.29 376.67 329.04 374.43 329.04 371.67C329.04 368.91 331.29 366.67 334.04 366.67C336.8 366.67 339.04 368.91 339.04 371.67Z"
       id="c1YnXsxhwZ" />
  </defs>
  <g
     id="g85"
     transform="matrix(0.94518397,0,0,0.96246429,22.564782,-11.313895)">
    <g
       id="g83">
      <use
         xlink:href="#a1vNCi5NYM"
         opacity="1"
         fill="#ec2a18"
         fill-opacity="0.7"
         id="use25"
         x="0"
         y="0"
         width="100%"
         height="100%" />
      <path
         d="M 217.48,534.67 C 129.44,606.87 42.33,646.44 23.07,622.96 3.82,599.48 59.66,521.8 147.7,449.59 c 88.04,-72.21 175.15,-111.77 194.41,-88.3 19.26,23.48 -36.59,101.17 -124.63,173.38 z"
         id="use29"
         style="fill:#1833ec;fill-opacity:0.7" />
      <use
         xlink:href="#bMySyK3VJ"
         opacity="1"
         fill="#3dec18"
         fill-opacity="0.7"
         id="use33"
         x="0"
         y="0"
         width="100%"
         height="100%" />
      <path
         id="use29-0"
         style="fill:#ffff00;fill-opacity:1;stroke-width:0.953785"
         d="M 276.19141 311.59375 C 278.16793 322.7074 280.43342 333.00564 282.94336 342.35547 C 274.58534 346.04028 265.672 350.4873 256.32812 355.65039 C 267.0578 359.60764 278.3002 362.48966 289.92188 364.18945 C 293.05324 372.37594 296.42813 379.29563 300 384.73828 C 299.9989 384.74035 299.9972 384.74207 299.99609 384.74414 C 300.00185 384.7529 300.00792 384.76078 300.01367 384.76953 C 288.69549 405.99767 281.63694 429.92059 280.04102 455.35352 C 296.49157 438.47004 310.54638 422.06514 321.63281 406.97461 C 332.24158 420.87629 345.55262 435.91142 361.05859 451.38672 C 359.78065 425.58255 352.83417 401.28434 341.47461 379.73047 C 341.47576 379.72838 341.47736 379.7267 341.47852 379.72461 C 344.20843 374.7757 346.80839 368.94171 349.25195 362.32617 C 360.11362 360.02506 370.59336 356.67881 380.57812 352.38672 C 371.85976 348.04759 363.56898 344.34796 355.80273 341.31641 C 357.57653 334.61054 359.22643 327.42479 360.73438 319.80859 C 354.24481 323.82675 348.04591 328.28478 342.16992 333.13281 C 338.47309 330.83669 333.49602 329.79016 327.41992 329.91406 C 323.37942 329.99646 318.84412 330.60698 313.89453 331.69531 C 310.72086 331.80123 307.8717 332.23508 305.38281 333.01367 C 296.46122 324.87104 286.68016 317.6769 276.19141 311.59375 z "
         transform="matrix(1.0579951,0,0,1.0389996,-23.873429,11.755132)" />
      <use
         xlink:href="#g6HEetej7P"
         opacity="1"
         fill="#000000"
         fill-opacity="1"
         id="use37"
         x="0"
         y="0"
         width="100%"
         height="100%" />
      <use
         xlink:href="#d28UtX3IKc"
         opacity="1"
         fill="#000000"
         fill-opacity="1"
         id="use41"
         x="0"
         y="0"
         width="100%"
         height="100%" />
      <use
         xlink:href="#bD5sKDGEn"
         opacity="1"
         fill="#000000"
         fill-opacity="1"
         id="use45"
         x="0"
         y="0"
         width="100%"
         height="100%" />
      <g
         id="g55"
         transform="matrix(0.95419727,0,0,0.94971662,0.04283893,33.582155)">
        <use
           xlink:href="#b2PON52hCY"
           opacity="1"
           fill-opacity="0"
           stroke="#5c6ff1"
           stroke-width="1"
           stroke-opacity="1"
           id="use53"
           x="0"
           y="0"
           width="100%"
           height="100%" />
      </g>
      <path
         d="m 627.93403,496.3823 c 0,98.30361 -79.73531,178.12173 -177.95819,178.12173 -98.21336,0 -177.94867,-79.81812 -177.94867,-178.12173 0,-98.30362 79.73531,-178.12174 177.94867,-178.12174 98.22288,0 177.95819,79.81812 177.95819,178.12174 z"
         id="use59"
         style="fill-opacity:0;stroke:#76f15c;stroke-width:0.951933;stroke-opacity:1" />
      <use
         xlink:href="#e1TCzdDJE0"
         opacity="1"
         fill-opacity="0"
         stroke="#f1695c"
         stroke-width="1"
         stroke-opacity="1"
         id="use65"
         x="0"
         y="0"
         width="100%"
         height="100%"
         transform="matrix(0.95420925,0,0,0.9417676,5.9400325,2.5506939)" />
      <use
         xlink:href="#i13pxMT7RS"
         opacity="1"
         fill="#000000"
         fill-opacity="1"
         id="use75"
         x="0"
         y="0"
         width="100%"
         height="100%"
         transform="translate(15.578642,14.493732)" />
      <path
         style="fill:#ffff00;stroke:none;stroke-width:0.0191327;fill-opacity:1"
         d="m 312.62914,365.49615 c -0.05,-0.004 -0.0909,-0.0118 -0.0909,-0.0174 0,-0.0279 1.46126,-2.01638 2.25461,-3.06808 1.47689,-1.95781 3.23718,-4.1917 4.58326,-5.81635 1.44209,-1.74054 3.5263,-4.18186 3.58845,-4.20329 0.006,-0.002 0.0836,0.0884 0.17281,0.20089 0.8709,1.09816 1.17606,1.48553 1.63816,2.07956 2.34449,3.01376 4.48763,5.96869 6.75789,9.31765 0.39938,0.58913 0.40173,0.59321 0.35114,0.60739 -0.0505,0.0142 -1.13434,0.12246 -2.14598,0.21444 -5.20666,0.47339 -10.4386,0.7069 -15.58362,0.6955 -0.78922,-0.002 -1.47585,-0.006 -1.52584,-0.0103 z m 10.5565,-0.34037 c 1.18403,-0.0746 2.40177,-0.70971 3.20919,-1.67364 0.56619,-0.67594 0.92852,-1.48141 1.08012,-2.40116 0.0499,-0.30278 0.0497,-1.15322 -3.1e-4,-1.45409 -0.12741,-0.76608 -0.36046,-1.36519 -0.77032,-1.98024 -0.77856,-1.1683 -2.02987,-1.93582 -3.39835,-2.08442 -0.27314,-0.0297 -0.83768,-0.0249 -1.09991,0.009 -1.59818,0.20817 -2.96899,1.20813 -3.67099,2.67787 -0.32494,0.68032 -0.47224,1.33677 -0.47224,2.1046 0,1.09043 0.32882,2.07544 0.98624,2.95433 0.17855,0.23871 0.66013,0.72035 0.90313,0.90327 0.76081,0.57267 1.63517,0.90029 2.54466,0.95346 0.24302,0.0142 0.33724,0.0129 0.68878,-0.009 z"
         id="path879"
         transform="matrix(1.0579951,0,0,1.0389996,-23.873429,11.755132)" />
    </g>
  </g>
</svg>
